<?xml version="1.0" encoding="utf-8"?>
<!-- Generator: Adobe Illustrator 21.1.0, SVG Export Plug-In . SVG Version: 6.00 Build 0)  -->
<svg version="1.1" id="Layer_1" xmlns="http://www.w3.org/2000/svg" xmlns:xlink="http://www.w3.org/1999/xlink" x="0px" y="0px"
	 viewBox="0 0 365 250" enable-background="new 0 0 365 250" xml:space="preserve">
<path display="none" fill="#EFF0F1" d="M77.5,195c0,0.5-0.4,0.9-0.9,0.9s-0.9-0.4-0.9-0.9s0.4-0.9,0.9-0.9S77.5,194.5,77.5,195z
	 M76.7,188.2c-0.5,0-0.9,0.4-0.9,0.9s0.4,0.9,0.9,0.9s0.9-0.4,0.9-0.9S77.1,188.2,76.7,188.2z M82.6,194.1c-0.5,0-0.9,0.4-0.9,0.9
	s0.4,0.9,0.9,0.9s0.9-0.4,0.9-0.9S83.1,194.1,82.6,194.1z M82.6,188.2c-0.5,0-0.9,0.4-0.9,0.9s0.4,0.9,0.9,0.9s0.9-0.4,0.9-0.9
	C83.5,188.6,83.1,188.2,82.6,188.2z M79.6,185.2c-0.5,0-0.9,0.4-0.9,0.9s0.4,0.9,0.9,0.9s0.9-0.4,0.9-0.9
	C80.5,185.6,80.1,185.2,79.6,185.2z M79.6,191.2c-0.5,0-0.9,0.4-0.9,0.9s0.4,0.9,0.9,0.9s0.9-0.4,0.9-0.9
	C80.5,191.6,80.1,191.2,79.6,191.2z M85.6,191.2c-0.5,0-0.9,0.4-0.9,0.9s0.4,0.9,0.9,0.9s0.9-0.4,0.9-0.9
	C86.5,191.6,86.1,191.2,85.6,191.2z M88.5,194.1c-0.5,0-0.9,0.4-0.9,0.9s0.4,0.9,0.9,0.9s0.9-0.4,0.9-0.9S89,194.1,88.5,194.1z
	 M64.8,194.1c-0.5,0-0.9,0.4-0.9,0.9s0.4,0.9,0.9,0.9s0.9-0.4,0.9-0.9C65.7,194.5,65.3,194.1,64.8,194.1z M64.8,188.2
	c-0.5,0-0.9,0.4-0.9,0.9s0.4,0.9,0.9,0.9s0.9-0.4,0.9-0.9C65.7,188.6,65.3,188.2,64.8,188.2z M70.7,194.1c-0.5,0-0.9,0.4-0.9,0.9
	s0.4,0.9,0.9,0.9s0.9-0.4,0.9-0.9S71.2,194.1,70.7,194.1z M70.7,188.2c-0.5,0-0.9,0.4-0.9,0.9s0.4,0.9,0.9,0.9s0.9-0.4,0.9-0.9
	S71.2,188.2,70.7,188.2z M67.7,185.2c-0.5,0-0.9,0.4-0.9,0.9s0.4,0.9,0.9,0.9s0.9-0.4,0.9-0.9S68.2,185.2,67.7,185.2z M67.7,191.2
	c-0.5,0-0.9,0.4-0.9,0.9s0.4,0.9,0.9,0.9s0.9-0.4,0.9-0.9C68.6,191.6,68.2,191.2,67.7,191.2z M73.7,185.2c-0.5,0-0.9,0.4-0.9,0.9
	s0.4,0.9,0.9,0.9s0.9-0.4,0.9-0.9S74.2,185.2,73.7,185.2z M73.7,191.2c-0.5,0-0.9,0.4-0.9,0.9s0.4,0.9,0.9,0.9s0.9-0.4,0.9-0.9
	C74.6,191.6,74.2,191.2,73.7,191.2z M52.9,194.1c-0.5,0-0.9,0.4-0.9,0.9s0.4,0.9,0.9,0.9s0.9-0.4,0.9-0.9
	C53.8,194.5,53.4,194.1,52.9,194.1z M52.9,188.2c-0.5,0-0.9,0.4-0.9,0.9s0.4,0.9,0.9,0.9s0.9-0.4,0.9-0.9
	C53.8,188.6,53.4,188.2,52.9,188.2z M58.8,194.1c-0.5,0-0.9,0.4-0.9,0.9s0.4,0.9,0.9,0.9s0.9-0.4,0.9-0.9S59.3,194.1,58.8,194.1z
	 M58.8,188.2c-0.5,0-0.9,0.4-0.9,0.9s0.4,0.9,0.9,0.9s0.9-0.4,0.9-0.9C59.7,188.6,59.3,188.2,58.8,188.2z M55.9,185.2
	c-0.5,0-0.9,0.4-0.9,0.9s0.4,0.9,0.9,0.9s0.9-0.4,0.9-0.9C56.8,185.6,56.3,185.2,55.9,185.2z M55.9,191.2c-0.5,0-0.9,0.4-0.9,0.9
	s0.4,0.9,0.9,0.9s0.9-0.4,0.9-0.9C56.8,191.6,56.3,191.2,55.9,191.2z M61.8,185.2c-0.5,0-0.9,0.4-0.9,0.9s0.4,0.9,0.9,0.9
	s0.9-0.4,0.9-0.9C62.7,185.6,62.3,185.2,61.8,185.2z M61.8,191.2c-0.5,0-0.9,0.4-0.9,0.9s0.4,0.9,0.9,0.9s0.9-0.4,0.9-0.9
	C62.7,191.6,62.3,191.2,61.8,191.2z M41,194.1c-0.5,0-0.9,0.4-0.9,0.9s0.4,0.9,0.9,0.9s0.9-0.4,0.9-0.9S41.5,194.1,41,194.1z
	 M41,188.2c-0.5,0-0.9,0.4-0.9,0.9s0.4,0.9,0.9,0.9s0.9-0.4,0.9-0.9S41.5,188.2,41,188.2z M47,194.1c-0.5,0-0.9,0.4-0.9,0.9
	s0.4,0.9,0.9,0.9s0.9-0.4,0.9-0.9C47.8,194.5,47.4,194.1,47,194.1z M47,188.2c-0.5,0-0.9,0.4-0.9,0.9s0.4,0.9,0.9,0.9
	s0.9-0.4,0.9-0.9C47.8,188.6,47.4,188.2,47,188.2z M44,185.2c-0.5,0-0.9,0.4-0.9,0.9s0.4,0.9,0.9,0.9s0.9-0.4,0.9-0.9
	S44.5,185.2,44,185.2z M44,191.2c-0.5,0-0.9,0.4-0.9,0.9s0.4,0.9,0.9,0.9s0.9-0.4,0.9-0.9C44.9,191.6,44.5,191.2,44,191.2z
	 M49.9,185.2c-0.5,0-0.9,0.4-0.9,0.9s0.4,0.9,0.9,0.9s0.9-0.4,0.9-0.9C50.8,185.6,50.4,185.2,49.9,185.2z M49.9,191.2
	c-0.5,0-0.9,0.4-0.9,0.9s0.4,0.9,0.9,0.9s0.9-0.4,0.9-0.9C50.8,191.6,50.4,191.2,49.9,191.2z M29.1,194.1c-0.5,0-0.9,0.4-0.9,0.9
	s0.4,0.9,0.9,0.9s0.9-0.4,0.9-0.9S29.6,194.1,29.1,194.1z M29.1,188.2c-0.5,0-0.9,0.4-0.9,0.9s0.4,0.9,0.9,0.9s0.9-0.4,0.9-0.9
	C30,188.6,29.6,188.2,29.1,188.2z M35.1,194.1c-0.5,0-0.9,0.4-0.9,0.9s0.4,0.9,0.9,0.9s0.9-0.4,0.9-0.9S35.6,194.1,35.1,194.1z
	 M35.1,188.2c-0.5,0-0.9,0.4-0.9,0.9s0.4,0.9,0.9,0.9s0.9-0.4,0.9-0.9C36,188.6,35.6,188.2,35.1,188.2z M32.1,185.2
	c-0.5,0-0.9,0.4-0.9,0.9s0.4,0.9,0.9,0.9s0.9-0.4,0.9-0.9S32.6,185.2,32.1,185.2z M32.1,191.2c-0.5,0-0.9,0.4-0.9,0.9
	s0.4,0.9,0.9,0.9s0.9-0.4,0.9-0.9C33,191.6,32.6,191.2,32.1,191.2z M38,185.2c-0.5,0-0.9,0.4-0.9,0.9s0.4,0.9,0.9,0.9
	s0.9-0.4,0.9-0.9S38.5,185.2,38,185.2z M38,191.2c-0.5,0-0.9,0.4-0.9,0.9s0.4,0.9,0.9,0.9s0.9-0.4,0.9-0.9
	C38.9,191.6,38.5,191.2,38,191.2z M17.2,194.1c-0.5,0-0.9,0.4-0.9,0.9s0.4,0.9,0.9,0.9s0.9-0.4,0.9-0.9S17.7,194.1,17.2,194.1z
	 M17.2,188.2c-0.5,0-0.9,0.4-0.9,0.9s0.4,0.9,0.9,0.9s0.9-0.4,0.9-0.9S17.7,188.2,17.2,188.2z M23.2,194.1c-0.5,0-0.9,0.4-0.9,0.9
	s0.4,0.9,0.9,0.9s0.9-0.4,0.9-0.9S23.7,194.1,23.2,194.1z M23.2,188.2c-0.5,0-0.9,0.4-0.9,0.9s0.4,0.9,0.9,0.9s0.9-0.4,0.9-0.9
	S23.7,188.2,23.2,188.2z M20.2,185.2c-0.5,0-0.9,0.4-0.9,0.9s0.4,0.9,0.9,0.9s0.9-0.4,0.9-0.9S20.7,185.2,20.2,185.2z M20.2,191.2
	c-0.5,0-0.9,0.4-0.9,0.9s0.4,0.9,0.9,0.9s0.9-0.4,0.9-0.9C21.1,191.6,20.7,191.2,20.2,191.2z M26.2,185.2c-0.5,0-0.9,0.4-0.9,0.9
	s0.4,0.9,0.9,0.9s0.9-0.4,0.9-0.9C27,185.6,26.6,185.2,26.2,185.2z M26.2,191.2c-0.5,0-0.9,0.4-0.9,0.9s0.4,0.9,0.9,0.9
	s0.9-0.4,0.9-0.9C27,191.6,26.6,191.2,26.2,191.2z M76.7,182.3c-0.3,0-0.6,0.2-0.7,0.4c-0.1,0.1-0.2,0.3-0.2,0.5
	c0,0.3,0.2,0.6,0.4,0.7c0.1,0.1,0.3,0.2,0.5,0.2s0.4-0.1,0.5-0.2c0.2-0.2,0.4-0.4,0.4-0.7c0-0.2-0.1-0.4-0.2-0.5
	C77.2,182.4,77,182.3,76.7,182.3z M64.8,182.3c-0.3,0-0.6,0.2-0.7,0.4c-0.1,0.1-0.2,0.3-0.2,0.5c0,0.3,0.2,0.6,0.4,0.7
	c0.1,0.1,0.3,0.2,0.5,0.2s0.4-0.1,0.5-0.2c0.2-0.2,0.4-0.4,0.4-0.7c0-0.2-0.1-0.4-0.2-0.5C65.3,182.4,65.1,182.3,64.8,182.3z
	 M64.8,176.3c-0.5,0-0.9,0.4-0.9,0.9s0.4,0.9,0.9,0.9s0.9-0.4,0.9-0.9C65.7,176.7,65.3,176.3,64.8,176.3z M70.7,182.3
	c-0.3,0-0.6,0.2-0.7,0.4c-0.1,0.1-0.2,0.3-0.2,0.5c0,0.3,0.2,0.6,0.4,0.7c0.1,0.1,0.3,0.2,0.5,0.2s0.4-0.1,0.5-0.2
	c0.2-0.2,0.4-0.4,0.4-0.7c0-0.2-0.1-0.4-0.2-0.5C71.3,182.4,71,182.3,70.7,182.3z M70.7,176.3c-0.5,0-0.9,0.4-0.9,0.9
	s0.4,0.9,0.9,0.9s0.9-0.4,0.9-0.9S71.2,176.3,70.7,176.3z M67.7,173.4c-0.5,0-0.9,0.4-0.9,0.9s0.4,0.9,0.9,0.9s0.9-0.4,0.9-0.9
	S68.2,173.4,67.7,173.4z M67.7,179.3c-0.5,0-0.9,0.4-0.9,0.9s0.4,0.9,0.9,0.9s0.9-0.4,0.9-0.9S68.2,179.3,67.7,179.3z M73.7,179.3
	c-0.5,0-0.9,0.4-0.9,0.9s0.4,0.9,0.9,0.9s0.9-0.4,0.9-0.9S74.2,179.3,73.7,179.3z M52.9,182.3c-0.3,0-0.6,0.2-0.7,0.4
	c-0.1,0.1-0.2,0.3-0.2,0.5c0,0.3,0.2,0.6,0.4,0.7c0.1,0.1,0.3,0.2,0.5,0.2s0.4-0.1,0.5-0.2c0.2-0.2,0.4-0.4,0.4-0.7
	c0-0.2-0.1-0.4-0.2-0.5C53.5,182.4,53.2,182.3,52.9,182.3z M52.9,176.3c-0.5,0-0.9,0.4-0.9,0.9s0.4,0.9,0.9,0.9s0.9-0.4,0.9-0.9
	C53.8,176.7,53.4,176.3,52.9,176.3z M58.8,182.3c-0.3,0-0.6,0.2-0.7,0.4c-0.1,0.1-0.2,0.3-0.2,0.5c0,0.3,0.2,0.6,0.4,0.7
	c0.1,0.1,0.3,0.2,0.5,0.2s0.4-0.1,0.5-0.2c0.2-0.2,0.4-0.4,0.4-0.7c0-0.2-0.1-0.4-0.2-0.5C59.4,182.4,59.1,182.3,58.8,182.3z
	 M58.8,176.3c-0.5,0-0.9,0.4-0.9,0.9s0.4,0.9,0.9,0.9s0.9-0.4,0.9-0.9S59.3,176.3,58.8,176.3z M55.9,173.4c-0.5,0-0.9,0.4-0.9,0.9
	s0.4,0.9,0.9,0.9s0.9-0.4,0.9-0.9C56.8,173.7,56.3,173.4,55.9,173.4z M55.9,179.3c-0.5,0-0.9,0.4-0.9,0.9s0.4,0.9,0.9,0.9
	s0.9-0.4,0.9-0.9C56.8,179.7,56.3,179.3,55.9,179.3z M61.8,173.4c-0.5,0-0.9,0.4-0.9,0.9s0.4,0.9,0.9,0.9s0.9-0.4,0.9-0.9
	C62.7,173.7,62.3,173.4,61.8,173.4z M61.8,179.3c-0.5,0-0.9,0.4-0.9,0.9s0.4,0.9,0.9,0.9s0.9-0.4,0.9-0.9S62.3,179.3,61.8,179.3z
	 M41,182.3c-0.3,0-0.6,0.2-0.7,0.4c-0.1,0.1-0.2,0.3-0.2,0.5c0,0.3,0.2,0.6,0.4,0.7c0.1,0.1,0.3,0.2,0.5,0.2s0.4-0.1,0.5-0.2
	c0.2-0.2,0.4-0.4,0.4-0.7c0-0.2-0.1-0.4-0.2-0.5C41.6,182.4,41.3,182.3,41,182.3z M41,176.3c-0.5,0-0.9,0.4-0.9,0.9s0.4,0.9,0.9,0.9
	s0.9-0.4,0.9-0.9S41.5,176.3,41,176.3z M47,182.3c-0.3,0-0.6,0.2-0.7,0.4c-0.1,0.1-0.2,0.3-0.2,0.5c0,0.3,0.2,0.6,0.4,0.7
	c0.1,0.1,0.3,0.2,0.5,0.2s0.4-0.1,0.5-0.2c0.2-0.2,0.4-0.4,0.4-0.7c0-0.2-0.1-0.4-0.2-0.5C47.5,182.4,47.2,182.3,47,182.3z
	 M47,176.3c-0.5,0-0.9,0.4-0.9,0.9s0.4,0.9,0.9,0.9s0.9-0.4,0.9-0.9C47.8,176.7,47.4,176.3,47,176.3z M44,173.4
	c-0.5,0-0.9,0.4-0.9,0.9s0.4,0.9,0.9,0.9s0.9-0.4,0.9-0.9S44.5,173.4,44,173.4z M44,179.3c-0.5,0-0.9,0.4-0.9,0.9s0.4,0.9,0.9,0.9
	s0.9-0.4,0.9-0.9S44.5,179.3,44,179.3z M49.9,173.4c-0.5,0-0.9,0.4-0.9,0.9s0.4,0.9,0.9,0.9s0.9-0.4,0.9-0.9
	C50.8,173.7,50.4,173.4,49.9,173.4z M49.9,179.3c-0.5,0-0.9,0.4-0.9,0.9s0.4,0.9,0.9,0.9s0.9-0.4,0.9-0.9
	C50.8,179.7,50.4,179.3,49.9,179.3z M29.1,182.3c-0.3,0-0.6,0.2-0.7,0.4c-0.1,0.1-0.2,0.3-0.2,0.5c0,0.3,0.2,0.6,0.4,0.7
	c0.1,0.1,0.3,0.2,0.5,0.2s0.4-0.1,0.5-0.2c0.2-0.2,0.4-0.4,0.4-0.7c0-0.2-0.1-0.4-0.2-0.5C29.7,182.4,29.4,182.3,29.1,182.3z
	 M29.1,176.3c-0.5,0-0.9,0.4-0.9,0.9s0.4,0.9,0.9,0.9s0.9-0.4,0.9-0.9S29.6,176.3,29.1,176.3z M35.1,182.3c-0.3,0-0.6,0.2-0.7,0.4
	c-0.1,0.1-0.2,0.3-0.2,0.5c0,0.3,0.2,0.6,0.4,0.7c0.1,0.1,0.3,0.2,0.5,0.2s0.4-0.1,0.5-0.2c0.2-0.2,0.4-0.4,0.4-0.7
	c0-0.2-0.1-0.4-0.2-0.5C35.6,182.4,35.4,182.3,35.1,182.3z M35.1,176.3c-0.5,0-0.9,0.4-0.9,0.9s0.4,0.9,0.9,0.9s0.9-0.4,0.9-0.9
	S35.6,176.3,35.1,176.3z M32.1,173.4c-0.5,0-0.9,0.4-0.9,0.9s0.4,0.9,0.9,0.9s0.9-0.4,0.9-0.9S32.6,173.4,32.1,173.4z M32.1,179.3
	c-0.5,0-0.9,0.4-0.9,0.9s0.4,0.9,0.9,0.9s0.9-0.4,0.9-0.9S32.6,179.3,32.1,179.3z M38,173.4c-0.5,0-0.9,0.4-0.9,0.9s0.4,0.9,0.9,0.9
	s0.9-0.4,0.9-0.9S38.5,173.4,38,173.4z M38,179.3c-0.5,0-0.9,0.4-0.9,0.9s0.4,0.9,0.9,0.9s0.9-0.4,0.9-0.9S38.5,179.3,38,179.3z
	 M17.2,182.3c-0.3,0-0.6,0.2-0.7,0.4c-0.1,0.1-0.2,0.3-0.2,0.5c0,0.3,0.2,0.6,0.4,0.7c0.1,0.1,0.3,0.2,0.5,0.2s0.4-0.1,0.5-0.2
	c0.2-0.2,0.4-0.4,0.4-0.7c0-0.2-0.1-0.4-0.2-0.5C17.8,182.4,17.5,182.3,17.2,182.3z M17.2,176.3c-0.5,0-0.9,0.4-0.9,0.9
	s0.4,0.9,0.9,0.9s0.9-0.4,0.9-0.9S17.7,176.3,17.2,176.3z M23.2,182.3c-0.3,0-0.6,0.2-0.7,0.4c-0.1,0.1-0.2,0.3-0.2,0.5
	c0,0.3,0.2,0.6,0.4,0.7c0.1,0.1,0.3,0.2,0.5,0.2s0.4-0.1,0.5-0.2c0.2-0.2,0.4-0.4,0.4-0.7c0-0.2-0.1-0.4-0.2-0.5
	C23.8,182.4,23.5,182.3,23.2,182.3z M23.2,176.3c-0.5,0-0.9,0.4-0.9,0.9s0.4,0.9,0.9,0.9s0.9-0.4,0.9-0.9S23.7,176.3,23.2,176.3z
	 M20.2,173.4c-0.5,0-0.9,0.4-0.9,0.9s0.4,0.9,0.9,0.9s0.9-0.4,0.9-0.9S20.7,173.4,20.2,173.4z M20.2,179.3c-0.5,0-0.9,0.4-0.9,0.9
	s0.4,0.9,0.9,0.9s0.9-0.4,0.9-0.9S20.7,179.3,20.2,179.3z M26.2,173.4c-0.5,0-0.9,0.4-0.9,0.9s0.4,0.9,0.9,0.9s0.9-0.4,0.9-0.9
	C27,173.7,26.6,173.4,26.2,173.4z M26.2,179.3c-0.5,0-0.9,0.4-0.9,0.9s0.4,0.9,0.9,0.9s0.9-0.4,0.9-0.9
	C27,179.7,26.6,179.3,26.2,179.3z M64.8,170.4c-0.3,0-0.6,0.2-0.7,0.4c-0.1,0.1-0.2,0.3-0.2,0.5s0.1,0.5,0.3,0.6
	c0.2,0.2,0.4,0.3,0.6,0.3s0.5-0.1,0.6-0.3c0.2-0.2,0.3-0.4,0.3-0.6c0-0.2-0.1-0.4-0.2-0.5C65.3,170.5,65.1,170.4,64.8,170.4z
	 M52.9,170.4c-0.3,0-0.6,0.2-0.7,0.4c-0.1,0.1-0.2,0.3-0.2,0.5s0.1,0.5,0.3,0.6c0.2,0.2,0.4,0.3,0.6,0.3c0.2,0,0.5-0.1,0.6-0.3
	c0.2-0.2,0.3-0.4,0.3-0.6c0-0.2-0.1-0.4-0.2-0.5C53.5,170.5,53.2,170.4,52.9,170.4z M52.9,164.4c-0.5,0-0.9,0.4-0.9,0.9
	s0.4,0.9,0.9,0.9s0.9-0.4,0.9-0.9C53.8,164.8,53.4,164.4,52.9,164.4z M58.8,170.4c-0.3,0-0.6,0.2-0.7,0.4c-0.1,0.1-0.2,0.3-0.2,0.5
	s0.1,0.5,0.3,0.6c0.2,0.2,0.4,0.3,0.6,0.3c0.2,0,0.5-0.1,0.6-0.3c0.2-0.2,0.3-0.4,0.3-0.6c0-0.2-0.1-0.4-0.2-0.5
	C59.4,170.5,59.1,170.4,58.8,170.4z M58.8,164.4c-0.5,0-0.9,0.4-0.9,0.9s0.4,0.9,0.9,0.9s0.9-0.4,0.9-0.9
	C59.7,164.8,59.3,164.4,58.8,164.4z M55.9,161.5c-0.5,0-0.9,0.4-0.9,0.9s0.4,0.9,0.9,0.9s0.9-0.4,0.9-0.9
	C56.8,161.9,56.3,161.5,55.9,161.5z M55.9,167.4c-0.5,0-0.9,0.4-0.9,0.9s0.4,0.9,0.9,0.9s0.9-0.4,0.9-0.9
	C56.8,167.8,56.3,167.4,55.9,167.4z M61.8,167.4c-0.5,0-0.9,0.4-0.9,0.9s0.4,0.9,0.9,0.9s0.9-0.4,0.9-0.9
	C62.7,167.8,62.3,167.4,61.8,167.4z M41,170.4c-0.3,0-0.6,0.2-0.7,0.4c-0.1,0.1-0.2,0.3-0.2,0.5s0.1,0.5,0.3,0.6
	c0.2,0.2,0.4,0.3,0.6,0.3c0.2,0,0.5-0.1,0.6-0.3c0.2-0.2,0.3-0.4,0.3-0.6c0-0.2-0.1-0.4-0.2-0.5C41.6,170.5,41.3,170.4,41,170.4z
	 M41,164.4c-0.5,0-0.9,0.4-0.9,0.9s0.4,0.9,0.9,0.9s0.9-0.4,0.9-0.9C41.9,164.8,41.5,164.4,41,164.4z M47,170.4
	c-0.3,0-0.6,0.2-0.7,0.4c-0.1,0.1-0.2,0.3-0.2,0.5s0.1,0.5,0.3,0.6c0.2,0.2,0.4,0.3,0.6,0.3c0.2,0,0.5-0.1,0.6-0.3
	c0.2-0.2,0.3-0.4,0.3-0.6c0-0.2-0.1-0.4-0.2-0.5C47.5,170.5,47.2,170.4,47,170.4z M47,164.4c-0.5,0-0.9,0.4-0.9,0.9s0.4,0.9,0.9,0.9
	s0.9-0.4,0.9-0.9C47.8,164.8,47.4,164.4,47,164.4z M44,161.5c-0.5,0-0.9,0.4-0.9,0.9s0.4,0.9,0.9,0.9s0.9-0.4,0.9-0.9
	S44.5,161.5,44,161.5z M44,167.4c-0.5,0-0.9,0.4-0.9,0.9s0.4,0.9,0.9,0.9s0.9-0.4,0.9-0.9C44.9,167.8,44.5,167.4,44,167.4z
	 M49.9,161.5c-0.5,0-0.9,0.4-0.9,0.9s0.4,0.9,0.9,0.9s0.9-0.4,0.9-0.9C50.8,161.9,50.4,161.5,49.9,161.5z M49.9,167.4
	c-0.5,0-0.9,0.4-0.9,0.9s0.4,0.9,0.9,0.9s0.9-0.4,0.9-0.9C50.8,167.8,50.4,167.4,49.9,167.4z M29.1,170.4c-0.3,0-0.6,0.2-0.7,0.4
	c-0.1,0.1-0.2,0.3-0.2,0.5s0.1,0.5,0.3,0.6c0.2,0.2,0.4,0.3,0.6,0.3s0.5-0.1,0.6-0.3c0.2-0.2,0.3-0.4,0.3-0.6c0-0.2-0.1-0.4-0.2-0.5
	C29.7,170.5,29.4,170.4,29.1,170.4z M29.1,164.4c-0.5,0-0.9,0.4-0.9,0.9s0.4,0.9,0.9,0.9s0.9-0.4,0.9-0.9
	C30,164.8,29.6,164.4,29.1,164.4z M35.1,170.4c-0.3,0-0.6,0.2-0.7,0.4c-0.1,0.1-0.2,0.3-0.2,0.5s0.1,0.5,0.3,0.6
	c0.2,0.2,0.4,0.3,0.6,0.3c0.2,0,0.5-0.1,0.6-0.3c0.2-0.2,0.3-0.4,0.3-0.6c0-0.2-0.1-0.4-0.2-0.5C35.6,170.5,35.4,170.4,35.1,170.4z
	 M35.1,164.4c-0.5,0-0.9,0.4-0.9,0.9s0.4,0.9,0.9,0.9s0.9-0.4,0.9-0.9C36,164.8,35.6,164.4,35.1,164.4z M32.1,161.5
	c-0.5,0-0.9,0.4-0.9,0.9s0.4,0.9,0.9,0.9s0.9-0.4,0.9-0.9S32.6,161.5,32.1,161.5z M32.1,167.4c-0.5,0-0.9,0.4-0.9,0.9
	s0.4,0.9,0.9,0.9s0.9-0.4,0.9-0.9C33,167.8,32.6,167.4,32.1,167.4z M38,161.5c-0.5,0-0.9,0.4-0.9,0.9s0.4,0.9,0.9,0.9
	s0.9-0.4,0.9-0.9S38.5,161.5,38,161.5z M38,167.4c-0.5,0-0.9,0.4-0.9,0.9s0.4,0.9,0.9,0.9s0.9-0.4,0.9-0.9
	C38.9,167.8,38.5,167.4,38,167.4z M17.2,170.4c-0.3,0-0.6,0.2-0.7,0.4c-0.1,0.1-0.2,0.3-0.2,0.5s0.1,0.5,0.3,0.6
	c0.2,0.2,0.4,0.3,0.6,0.3s0.5-0.1,0.6-0.3c0.2-0.2,0.3-0.4,0.3-0.6c0-0.2-0.1-0.4-0.2-0.5C17.8,170.5,17.5,170.4,17.2,170.4z
	 M17.2,164.4c-0.5,0-0.9,0.4-0.9,0.9s0.4,0.9,0.9,0.9s0.9-0.4,0.9-0.9C18.1,164.8,17.7,164.4,17.2,164.4z M23.2,170.4
	c-0.3,0-0.6,0.2-0.7,0.4c-0.1,0.1-0.2,0.3-0.2,0.5s0.1,0.5,0.3,0.6c0.2,0.2,0.4,0.3,0.6,0.3s0.5-0.1,0.6-0.3
	c0.2-0.2,0.3-0.4,0.3-0.6c0-0.2-0.1-0.4-0.2-0.5C23.8,170.5,23.5,170.4,23.2,170.4z M23.2,164.4c-0.5,0-0.9,0.4-0.9,0.9
	s0.4,0.9,0.9,0.9s0.9-0.4,0.9-0.9C24.1,164.8,23.7,164.4,23.2,164.4z M20.2,161.5c-0.5,0-0.9,0.4-0.9,0.9s0.4,0.9,0.9,0.9
	s0.9-0.4,0.9-0.9S20.7,161.5,20.2,161.5z M20.2,167.4c-0.5,0-0.9,0.4-0.9,0.9s0.4,0.9,0.9,0.9s0.9-0.4,0.9-0.9
	C21.1,167.8,20.7,167.4,20.2,167.4z M26.2,161.5c-0.5,0-0.9,0.4-0.9,0.9s0.4,0.9,0.9,0.9s0.9-0.4,0.9-0.9
	C27,161.9,26.6,161.5,26.2,161.5z M26.2,167.4c-0.5,0-0.9,0.4-0.9,0.9s0.4,0.9,0.9,0.9s0.9-0.4,0.9-0.9
	C27,167.8,26.6,167.4,26.2,167.4z M52.9,158.5c-0.3,0-0.6,0.2-0.7,0.4c-0.1,0.1-0.2,0.3-0.2,0.5s0.1,0.5,0.3,0.6
	c0.2,0.2,0.4,0.3,0.6,0.3c0.2,0,0.5-0.1,0.6-0.3c0.2-0.2,0.3-0.4,0.3-0.6c0-0.2-0.1-0.4-0.2-0.5C53.5,158.6,53.2,158.5,52.9,158.5z
	 M41,158.5c-0.3,0-0.6,0.2-0.7,0.4c-0.1,0.1-0.2,0.3-0.2,0.5s0.1,0.5,0.3,0.6c0.2,0.2,0.4,0.3,0.6,0.3c0.2,0,0.5-0.1,0.6-0.3
	c0.2-0.2,0.3-0.4,0.3-0.6c0-0.2-0.1-0.4-0.2-0.5C41.6,158.6,41.3,158.5,41,158.5z M41,152.6c-0.5,0-0.9,0.4-0.9,0.9s0.4,0.9,0.9,0.9
	s0.9-0.4,0.9-0.9S41.5,152.6,41,152.6z M47,158.5c-0.3,0-0.6,0.2-0.7,0.4c-0.1,0.1-0.2,0.3-0.2,0.5s0.1,0.5,0.3,0.6
	c0.2,0.2,0.4,0.3,0.6,0.3c0.2,0,0.5-0.1,0.6-0.3c0.2-0.2,0.3-0.4,0.3-0.6c0-0.2-0.1-0.4-0.2-0.5C47.5,158.6,47.2,158.5,47,158.5z
	 M47,152.6c-0.5,0-0.9,0.4-0.9,0.9s0.4,0.9,0.9,0.9s0.9-0.4,0.9-0.9C47.8,153,47.4,152.6,47,152.6z M44,149.6
	c-0.5,0-0.9,0.4-0.9,0.9s0.4,0.9,0.9,0.9s0.9-0.4,0.9-0.9S44.5,149.6,44,149.6z M44,155.5c-0.5,0-0.9,0.4-0.9,0.9s0.4,0.9,0.9,0.9
	s0.9-0.4,0.9-0.9S44.5,155.5,44,155.5z M49.9,155.5c-0.5,0-0.9,0.4-0.9,0.9s0.4,0.9,0.9,0.9s0.9-0.4,0.9-0.9
	C50.8,155.9,50.4,155.5,49.9,155.5z M29.1,158.5c-0.3,0-0.6,0.2-0.7,0.4c-0.1,0.1-0.2,0.3-0.2,0.5s0.1,0.5,0.3,0.6
	c0.2,0.2,0.4,0.3,0.6,0.3s0.5-0.1,0.6-0.3c0.2-0.2,0.3-0.4,0.3-0.6c0-0.2-0.1-0.4-0.2-0.5C29.7,158.6,29.4,158.5,29.1,158.5z
	 M29.1,152.6c-0.5,0-0.9,0.4-0.9,0.9s0.4,0.9,0.9,0.9s0.9-0.4,0.9-0.9S29.6,152.6,29.1,152.6z M35.1,158.5c-0.3,0-0.6,0.2-0.7,0.4
	c-0.1,0.1-0.2,0.3-0.2,0.5s0.1,0.5,0.3,0.6c0.2,0.2,0.4,0.3,0.6,0.3c0.2,0,0.5-0.1,0.6-0.3c0.2-0.2,0.3-0.4,0.3-0.6
	c0-0.2-0.1-0.4-0.2-0.5C35.6,158.6,35.4,158.5,35.1,158.5z M35.1,152.6c-0.5,0-0.9,0.4-0.9,0.9s0.4,0.9,0.9,0.9s0.9-0.4,0.9-0.9
	S35.6,152.6,35.1,152.6z M32.1,149.6c-0.5,0-0.9,0.4-0.9,0.9s0.4,0.9,0.9,0.9s0.9-0.4,0.9-0.9S32.6,149.6,32.1,149.6z M32.1,155.5
	c-0.5,0-0.9,0.4-0.9,0.9s0.4,0.9,0.9,0.9s0.9-0.4,0.9-0.9S32.6,155.5,32.1,155.5z M38,149.6c-0.5,0-0.9,0.4-0.9,0.9s0.4,0.9,0.9,0.9
	s0.9-0.4,0.9-0.9S38.5,149.6,38,149.6z M38,155.5c-0.5,0-0.9,0.4-0.9,0.9s0.4,0.9,0.9,0.9s0.9-0.4,0.9-0.9S38.5,155.5,38,155.5z
	 M17.2,158.5c-0.3,0-0.6,0.2-0.7,0.4c-0.1,0.1-0.2,0.3-0.2,0.5s0.1,0.5,0.3,0.6c0.2,0.2,0.4,0.3,0.6,0.3s0.5-0.1,0.6-0.3
	c0.2-0.2,0.3-0.4,0.3-0.6c0-0.2-0.1-0.4-0.2-0.5C17.8,158.6,17.5,158.5,17.2,158.5z M17.2,152.6c-0.5,0-0.9,0.4-0.9,0.9
	s0.4,0.9,0.9,0.9s0.9-0.4,0.9-0.9S17.7,152.6,17.2,152.6z M23.2,158.5c-0.3,0-0.6,0.2-0.7,0.4c-0.1,0.1-0.2,0.3-0.2,0.5
	s0.1,0.5,0.3,0.6c0.2,0.2,0.4,0.3,0.6,0.3s0.5-0.1,0.6-0.3c0.2-0.2,0.3-0.4,0.3-0.6c0-0.2-0.1-0.4-0.2-0.5
	C23.8,158.6,23.5,158.5,23.2,158.5z M23.2,152.6c-0.5,0-0.9,0.4-0.9,0.9s0.4,0.9,0.9,0.9s0.9-0.4,0.9-0.9S23.7,152.6,23.2,152.6z
	 M20.2,149.6c-0.5,0-0.9,0.4-0.9,0.9s0.4,0.9,0.9,0.9s0.9-0.4,0.9-0.9S20.7,149.6,20.2,149.6z M20.2,155.5c-0.5,0-0.9,0.4-0.9,0.9
	s0.4,0.9,0.9,0.9s0.9-0.4,0.9-0.9S20.7,155.5,20.2,155.5z M26.2,149.6c-0.5,0-0.9,0.4-0.9,0.9s0.4,0.9,0.9,0.9s0.9-0.4,0.9-0.9
	C27,150,26.6,149.6,26.2,149.6z M26.2,155.5c-0.5,0-0.9,0.4-0.9,0.9s0.4,0.9,0.9,0.9s0.9-0.4,0.9-0.9
	C27,155.9,26.6,155.5,26.2,155.5z M41,146.6c-0.3,0-0.6,0.2-0.7,0.4c-0.1,0.1-0.2,0.3-0.2,0.5s0.1,0.5,0.3,0.6
	c0.2,0.2,0.4,0.3,0.6,0.3c0.2,0,0.5-0.1,0.6-0.3c0.2-0.2,0.3-0.4,0.3-0.6c0-0.2-0.1-0.4-0.2-0.5C41.6,146.8,41.3,146.6,41,146.6z
	 M29.1,146.6c-0.3,0-0.6,0.2-0.7,0.4c-0.1,0.1-0.2,0.3-0.2,0.5s0.1,0.5,0.3,0.6c0.2,0.2,0.4,0.3,0.6,0.3s0.5-0.1,0.6-0.3
	c0.2-0.2,0.3-0.4,0.3-0.6c0-0.2-0.1-0.4-0.2-0.5C29.7,146.8,29.4,146.6,29.1,146.6z M29.1,140.7c-0.5,0-0.9,0.4-0.9,0.9
	s0.4,0.9,0.9,0.9s0.9-0.4,0.9-0.9C30,141.1,29.6,140.7,29.1,140.7z M35.1,146.6c-0.3,0-0.6,0.2-0.7,0.4c-0.1,0.1-0.2,0.3-0.2,0.5
	s0.1,0.5,0.3,0.6c0.2,0.2,0.4,0.3,0.6,0.3c0.2,0,0.5-0.1,0.6-0.3c0.2-0.2,0.3-0.4,0.3-0.6c0-0.2-0.1-0.4-0.2-0.5
	C35.6,146.8,35.4,146.6,35.1,146.6z M35.1,140.7c-0.5,0-0.9,0.4-0.9,0.9s0.4,0.9,0.9,0.9s0.9-0.4,0.9-0.9
	C36,141.1,35.6,140.7,35.1,140.7z M32.1,137.7c-0.5,0-0.9,0.4-0.9,0.9s0.4,0.9,0.9,0.9s0.9-0.4,0.9-0.9
	C33,138.1,32.6,137.7,32.1,137.7z M32.1,143.6c-0.5,0-0.9,0.4-0.9,0.9s0.4,0.9,0.9,0.9s0.9-0.4,0.9-0.9S32.6,143.6,32.1,143.6z
	 M38,143.6c-0.5,0-0.9,0.4-0.9,0.9s0.4,0.9,0.9,0.9s0.9-0.4,0.9-0.9S38.5,143.6,38,143.6z M17.2,146.6c-0.3,0-0.6,0.2-0.7,0.4
	c-0.1,0.1-0.2,0.3-0.2,0.5s0.1,0.5,0.3,0.6c0.2,0.2,0.4,0.3,0.6,0.3s0.5-0.1,0.6-0.3c0.2-0.2,0.3-0.4,0.3-0.6c0-0.2-0.1-0.4-0.2-0.5
	C17.8,146.8,17.5,146.6,17.2,146.6z M17.2,140.7c-0.5,0-0.9,0.4-0.9,0.9s0.4,0.9,0.9,0.9s0.9-0.4,0.9-0.9
	C18.1,141.1,17.7,140.7,17.2,140.7z M23.2,146.6c-0.3,0-0.6,0.2-0.7,0.4c-0.1,0.1-0.2,0.3-0.2,0.5s0.1,0.5,0.3,0.6
	c0.2,0.2,0.4,0.3,0.6,0.3s0.5-0.1,0.6-0.3c0.2-0.2,0.3-0.4,0.3-0.6c0-0.2-0.1-0.4-0.2-0.5C23.8,146.8,23.5,146.6,23.2,146.6z
	 M23.2,140.7c-0.5,0-0.9,0.4-0.9,0.9s0.4,0.9,0.9,0.9s0.9-0.4,0.9-0.9C24.1,141.1,23.7,140.7,23.2,140.7z M20.2,137.7
	c-0.5,0-0.9,0.4-0.9,0.9s0.4,0.9,0.9,0.9s0.9-0.4,0.9-0.9C21.1,138.1,20.7,137.7,20.2,137.7z M20.2,143.6c-0.5,0-0.9,0.4-0.9,0.9
	s0.4,0.9,0.9,0.9s0.9-0.4,0.9-0.9S20.7,143.6,20.2,143.6z M26.2,137.7c-0.5,0-0.9,0.4-0.9,0.9s0.4,0.9,0.9,0.9s0.9-0.4,0.9-0.9
	C27,138.1,26.6,137.7,26.2,137.7z M26.2,143.6c-0.5,0-0.9,0.4-0.9,0.9s0.4,0.9,0.9,0.9s0.9-0.4,0.9-0.9
	C27,144,26.6,143.6,26.2,143.6z M29.1,134.7c-0.5,0-0.9,0.4-0.9,0.9c0,0.4,0.3,0.8,0.7,0.9c0.1,0,0.1,0,0.2,0s0.1,0,0.2,0
	c0.4-0.1,0.7-0.4,0.7-0.9C30,135.1,29.6,134.7,29.1,134.7z M17.2,134.7c-0.5,0-0.9,0.4-0.9,0.9c0,0.4,0.3,0.8,0.7,0.9
	c0.1,0,0.1,0,0.2,0s0.1,0,0.2,0c0.4-0.1,0.7-0.4,0.7-0.9C18.1,135.1,17.7,134.7,17.2,134.7z M17.2,128.8c-0.5,0-0.9,0.4-0.9,0.9
	s0.4,0.9,0.9,0.9s0.9-0.4,0.9-0.9S17.7,128.8,17.2,128.8z M23.2,134.7c-0.5,0-0.9,0.4-0.9,0.9c0,0.4,0.3,0.8,0.7,0.9
	c0.1,0,0.1,0,0.2,0s0.1,0,0.2,0c0.4-0.1,0.7-0.4,0.7-0.9C24.1,135.1,23.7,134.7,23.2,134.7z M23.2,128.8c-0.5,0-0.9,0.4-0.9,0.9
	s0.4,0.9,0.9,0.9s0.9-0.4,0.9-0.9S23.7,128.8,23.2,128.8z M20.2,125.8c-0.5,0-0.9,0.4-0.9,0.9s0.4,0.9,0.9,0.9s0.9-0.4,0.9-0.9
	C21.1,126.2,20.7,125.8,20.2,125.8z M20.2,131.8c-0.5,0-0.9,0.4-0.9,0.9s0.4,0.9,0.9,0.9s0.9-0.4,0.9-0.9S20.7,131.8,20.2,131.8z
	 M26.2,131.8c-0.5,0-0.9,0.4-0.9,0.9s0.4,0.9,0.9,0.9s0.9-0.4,0.9-0.9C27,132.2,26.6,131.8,26.2,131.8z M17.2,122.9
	c-0.3,0-0.6,0.2-0.7,0.4c-0.1,0.1-0.2,0.3-0.2,0.5c0,0.5,0.4,0.9,0.9,0.9s0.9-0.4,0.9-0.9c0-0.2-0.1-0.4-0.2-0.5
	C17.8,123,17.5,122.9,17.2,122.9z"/>
<rect x="-777.5" y="-415" fill="none" width="1920" height="1080"/>
<g>
	<path fill="#011EFF" d="M43,41.3c-0.9,0-1.7-0.8-1.7-1.7s0.8-1.7,1.7-1.7s1.7,0.8,1.7,1.7S43.9,41.3,43,41.3z M43,38.8
		c-0.4,0-0.8,0.4-0.8,0.8c0,0.4,0.4,0.8,0.8,0.8c0.4,0,0.8-0.4,0.8-0.8S43.4,38.8,43,38.8z"/>
</g>
<path fill="#011EFF" d="M64.3,95.5h-1.7v-1.7c0-0.4-0.3-0.8-0.8-0.8c-0.4,0-0.8,0.3-0.8,0.8v1.7h-1.7c-0.4,0-0.8,0.3-0.8,0.8
	c0,0.4,0.3,0.8,0.8,0.8H61v1.7c0,0.4,0.3,0.8,0.8,0.8c0.4,0,0.8-0.3,0.8-0.8V97h1.7c0.4,0,0.8-0.3,0.8-0.8
	C65.1,95.8,64.7,95.5,64.3,95.5z"/>
<path fill="#011EFF" d="M55.3,67.3h-1v-1c0-0.2-0.2-0.4-0.4-0.4s-0.4,0.2-0.4,0.4v1h-1c-0.2,0-0.4,0.2-0.4,0.4
	c0,0.2,0.2,0.4,0.4,0.4h1v1c0,0.2,0.2,0.4,0.4,0.4s0.4-0.2,0.4-0.4v-1h1c0.2,0,0.4-0.2,0.4-0.4S55.6,67.3,55.3,67.3z"/>
<g>
	<path fill="#011EFF" d="M73.4,54.9c-0.7,0-1.3-0.6-1.3-1.3s0.6-1.3,1.3-1.3c0.7,0,1.3,0.6,1.3,1.3C74.6,54.3,74.1,54.9,73.4,54.9z
		 M73.4,53c-0.3,0-0.6,0.3-0.6,0.6s0.3,0.6,0.6,0.6c0.3,0,0.6-0.3,0.6-0.6S73.7,53,73.4,53z"/>
</g>
<g>
	<g>
		<defs>
			<circle id="SVGID_1_" cx="29.6" cy="185.3" r="46.2"/>
		</defs>
		<clipPath id="SVGID_2_">
			<use xlink:href="#SVGID_1_"  overflow="visible"/>
		</clipPath>
		<g clip-path="url(#SVGID_2_)">
			
				<rect x="-24.9" y="155.7" transform="matrix(0.9849 -0.1731 0.1731 0.9849 -26.6657 7.339)" fill="#EFF0F1" width="107.3" height="1.7"/>
			
				<rect x="-25.5" y="152.4" transform="matrix(0.9849 -0.1731 0.1731 0.9849 -26.1025 7.1837)" fill="#EFF0F1" width="107.3" height="1.7"/>
			
				<rect x="-25" y="148.8" transform="matrix(0.9849 -0.1731 0.1731 0.9849 -25.4724 7.2162)" fill="#EFF0F1" width="107.3" height="1.7"/>
			
				<rect x="-25.7" y="145.6" transform="matrix(0.9849 -0.1731 0.1731 0.9849 -24.9305 7.0486)" fill="#EFF0F1" width="107.3" height="1.7"/>
			
				<rect x="-25.9" y="142.1" transform="matrix(0.9849 -0.1731 0.1731 0.9849 -24.3274 6.9621)" fill="#EFF0F1" width="107.3" height="1.7"/>
			
				<rect x="-26.5" y="138.8" transform="matrix(0.9849 -0.1731 0.1731 0.9849 -23.7642 6.8069)" fill="#EFF0F1" width="107.3" height="1.7"/>
			
				<rect x="-24.2" y="182.9" transform="matrix(0.9849 -0.1731 0.1731 0.9849 -31.365 7.8695)" fill="#EFF0F1" width="107.3" height="1.7"/>
			
				<rect x="-24.8" y="179.7" transform="matrix(0.9849 -0.1731 0.1731 0.9849 -30.8187 7.7186)" fill="#EFF0F1" width="107.3" height="1.7"/>
			
				<rect x="-24.3" y="176.1" transform="matrix(0.9849 -0.1731 0.1731 0.9849 -30.1885 7.7511)" fill="#EFF0F1" width="107.3" height="1.7"/>
			
				<rect x="-24.9" y="172.8" transform="matrix(0.9849 -0.1731 0.1731 0.9849 -29.6254 7.5958)" fill="#EFF0F1" width="107.3" height="1.7"/>
			
				<rect x="-25.1" y="169.3" transform="matrix(0.9849 -0.1731 0.1731 0.9849 -29.0222 7.5094)" fill="#EFF0F1" width="107.3" height="1.7"/>
			
				<rect x="-25.8" y="166.1" transform="matrix(0.9849 -0.1731 0.1731 0.9849 -28.4804 7.3417)" fill="#EFF0F1" width="107.3" height="1.7"/>
			
				<rect x="-25.2" y="162.4" transform="matrix(0.9849 -0.1731 0.1731 0.9849 -27.8289 7.3865)" fill="#EFF0F1" width="107.3" height="1.7"/>
			
				<rect x="-25.9" y="159.2" transform="matrix(0.9849 -0.1731 0.1731 0.9849 -27.2871 7.2189)" fill="#EFF0F1" width="107.3" height="1.7"/>
			
				<rect x="-23.7" y="210.3" transform="matrix(0.9849 -0.1731 0.1731 0.9849 -36.0998 8.3719)" fill="#EFF0F1" width="107.3" height="1.7"/>
			
				<rect x="-24.3" y="207" transform="matrix(0.9849 -0.1731 0.1731 0.9849 -35.5367 8.2166)" fill="#EFF0F1" width="107.3" height="1.7"/>
			
				<rect x="-23.8" y="203.4" transform="matrix(0.9849 -0.1731 0.1731 0.9849 -34.9065 8.249)" fill="#EFF0F1" width="107.3" height="1.7"/>
			
				<rect x="-24.4" y="200.2" transform="matrix(0.9849 -0.1731 0.1731 0.9849 -34.3602 8.0982)" fill="#EFF0F1" width="107.3" height="1.7"/>
			
				<rect x="-24.6" y="196.6" transform="matrix(0.9849 -0.1731 0.1731 0.9849 -33.7402 8.0073)" fill="#EFF0F1" width="107.3" height="1.7"/>
			
				<rect x="-25.3" y="193.4" transform="matrix(0.9849 -0.1731 0.1731 0.9849 -33.1983 7.8397)" fill="#EFF0F1" width="107.3" height="1.7"/>
			
				<rect x="-24.8" y="189.8" transform="matrix(0.9849 -0.1731 0.1731 0.9849 -32.5682 7.8722)" fill="#EFF0F1" width="107.3" height="1.7"/>
			
				<rect x="-25.4" y="186.5" transform="matrix(0.9849 -0.1731 0.1731 0.9849 -32.0051 7.7168)" fill="#EFF0F1" width="107.3" height="1.7"/>
			
				<rect x="-23" y="230.7" transform="matrix(0.9849 -0.1731 0.1731 0.9849 -39.6182 8.8007)" fill="#EFF0F1" width="107.3" height="1.7"/>
			
				<rect x="-23.7" y="227.4" transform="matrix(0.9849 -0.1731 0.1731 0.9849 -39.0595 8.6286)" fill="#EFF0F1" width="107.3" height="1.7"/>
			
				<rect x="-23.9" y="223.9" transform="matrix(0.9849 -0.1731 0.1731 0.9849 -38.4563 8.5422)" fill="#EFF0F1" width="107.3" height="1.7"/>
			
				<rect x="-24.5" y="220.6" transform="matrix(0.9849 -0.1731 0.1731 0.9849 -37.8932 8.3869)" fill="#EFF0F1" width="107.3" height="1.7"/>
			
				<rect x="-24" y="217" transform="matrix(0.9849 -0.1731 0.1731 0.9849 -37.263 8.4194)" fill="#EFF0F1" width="107.3" height="1.7"/>
			
				<rect x="-24.7" y="213.8" transform="matrix(0.9849 -0.1731 0.1731 0.9849 -36.7212 8.2517)" fill="#EFF0F1" width="107.3" height="1.7"/>
		</g>
	</g>
</g>
</svg>
